# Made in Blockbench 4.10.3
mtllib CardboardBox-Flap.mtl

o Flap
v 0.5 0.03125 0.25
v 0.5 0.03125 -0.25
v 0.5 -0.03125 0.25
v 0.5 -0.03125 -0.25
v -0.5 0.03125 0.25
v -0.5 0.03125 -0.25
v -0.5 -0.03125 0.25
v -0.5 -0.03125 -0.25
vt 0.390625 0.9375
vt 0.265625 0.9375
vt 0.265625 0.921875
vt 0.390625 0.921875
vt 0.390625 0.890625
vt 0.390625 0.90625
vt 0.265625 0.90625
vt 0.265625 0.890625
vt 0 0.875
vt 0.25 0.875
vt 0.25 1
vt 0 1
vt 0.25 0.734375
vt 0.25 0.859375
vt 0 0.859375
vt 0 0.734375
vt 0.515625 0.984375
vt 0.515625 1
vt 0.265625 1
vt 0.265625 0.984375
vt 0.515625 0.96875
vt 0.265625 0.96875
vt 0.265625 0.953125
vt 0.515625 0.953125
vn 1 0 0
vn -1 0 0
vn 0 1 0
vn 0 -1 0
vn 0 0 1
vn 0 0 -1
usemtl m_15454c72-5720-4714-1c07-8a44f03e53d1
f 2/1/1 1/2/1 3/3/1 4/4/1
f 7/5/2 5/6/2 6/7/2 8/8/2
f 5/9/3 1/10/3 2/11/3 6/12/3
f 4/13/4 3/14/4 7/15/4 8/16/4
f 3/17/5 1/18/5 5/19/5 7/20/5
f 6/21/6 2/22/6 4/23/6 8/24/6